<mxfile host="Electron" agent="Mozilla/5.0 (Macintosh; Intel Mac OS X 10_15_7) AppleWebKit/537.36 (KHTML, like Gecko) draw.io/26.1.1 Chrome/132.0.6834.210 Electron/34.3.3 Safari/537.36" version="26.1.1">
  <diagram name="Page-1" id="-inBJ_HCpQfVnkrAeUus">
    <mxGraphModel dx="1114" dy="878" grid="1" gridSize="10" guides="1" tooltips="1" connect="1" arrows="1" fold="1" page="1" pageScale="1" pageWidth="827" pageHeight="1169" math="0" shadow="0">
      <root>
        <mxCell id="0" />
        <mxCell id="1" parent="0" />
        <mxCell id="S5ZrosSx_sBYUpKwEmUG-2" style="edgeStyle=orthogonalEdgeStyle;rounded=0;orthogonalLoop=1;jettySize=auto;html=1;entryX=0.5;entryY=0;entryDx=0;entryDy=0;endArrow=block;endFill=1;" edge="1" parent="1" source="S5ZrosSx_sBYUpKwEmUG-3" target="S5ZrosSx_sBYUpKwEmUG-4">
          <mxGeometry relative="1" as="geometry" />
        </mxCell>
        <mxCell id="S5ZrosSx_sBYUpKwEmUG-3" value="Job&lt;div&gt;runBlocking&lt;/div&gt;" style="rounded=0;whiteSpace=wrap;html=1;" vertex="1" parent="1">
          <mxGeometry x="280" y="120" width="100" height="40" as="geometry" />
        </mxCell>
        <mxCell id="S5ZrosSx_sBYUpKwEmUG-9" style="edgeStyle=orthogonalEdgeStyle;rounded=0;orthogonalLoop=1;jettySize=auto;html=1;entryX=0.5;entryY=0;entryDx=0;entryDy=0;endArrow=block;endFill=1;" edge="1" parent="1">
          <mxGeometry relative="1" as="geometry">
            <mxPoint x="343" y="250" as="sourcePoint" />
            <mxPoint x="343" y="310" as="targetPoint" />
          </mxGeometry>
        </mxCell>
        <mxCell id="S5ZrosSx_sBYUpKwEmUG-4" value="launch Job&lt;div&gt;Coroutine1&lt;/div&gt;" style="rounded=0;whiteSpace=wrap;html=1;" vertex="1" parent="1">
          <mxGeometry x="280" y="210" width="100" height="40" as="geometry" />
        </mxCell>
        <mxCell id="S5ZrosSx_sBYUpKwEmUG-5" value="예외 발생" style="text;html=1;align=center;verticalAlign=middle;whiteSpace=wrap;rounded=0;" vertex="1" parent="1">
          <mxGeometry x="210" y="315" width="60" height="30" as="geometry" />
        </mxCell>
        <mxCell id="S5ZrosSx_sBYUpKwEmUG-10" style="edgeStyle=orthogonalEdgeStyle;rounded=0;orthogonalLoop=1;jettySize=auto;html=1;entryX=0.5;entryY=1;entryDx=0;entryDy=0;endArrow=block;endFill=1;dashed=1;strokeColor=#FF3333;" edge="1" parent="1">
          <mxGeometry relative="1" as="geometry">
            <mxPoint x="313" y="310" as="sourcePoint" />
            <mxPoint x="313" y="250" as="targetPoint" />
          </mxGeometry>
        </mxCell>
        <mxCell id="S5ZrosSx_sBYUpKwEmUG-7" value="launch Job&lt;div&gt;Coroutine2&lt;/div&gt;" style="rounded=0;whiteSpace=wrap;html=1;" vertex="1" parent="1">
          <mxGeometry x="280" y="310" width="100" height="40" as="geometry" />
        </mxCell>
        <mxCell id="S5ZrosSx_sBYUpKwEmUG-8" value="예외 전파 안됨" style="text;html=1;align=center;verticalAlign=middle;whiteSpace=wrap;rounded=0;fontColor=#FF3333;fontStyle=1" vertex="1" parent="1">
          <mxGeometry x="210" y="267" width="87" height="30" as="geometry" />
        </mxCell>
        <mxCell id="S5ZrosSx_sBYUpKwEmUG-6" value="" style="shape=mxgraph.mockup.markup.redX;fillColor=#ff0000;html=1;shadow=0;whiteSpace=wrap;strokeColor=none;" vertex="1" parent="1">
          <mxGeometry x="270" y="315" width="20" height="30" as="geometry" />
        </mxCell>
        <mxCell id="S5ZrosSx_sBYUpKwEmUG-11" value="" style="shape=mxgraph.mockup.markup.redX;fillColor=#ff0000;html=1;shadow=0;whiteSpace=wrap;strokeColor=none;" vertex="1" parent="1">
          <mxGeometry x="304" y="272" width="20" height="20" as="geometry" />
        </mxCell>
      </root>
    </mxGraphModel>
  </diagram>
</mxfile>
